# xmcd
#
# Track frame offsets:
#	150
#	45244
#	86953
#	155207
#
# Disc length: 3211 seconds
#
# Revision: 1
# Processed by: cddbd v1.5.2PL0 Copyright (c) Steve Scherf et al.
# Submitted via: audiograbber 1.83.01
#
DISCID=2c0c8904
DTITLE=Grateful Dead - 78-05-11A Springfield Civic Centre Arena, Springfield MA
DYEAR=1900
DGENRE=
TTITLE0=Scarlet Begonias
TTITLE1=Fire On The Mountain
TTITLE2=Dancing In The Streets
TTITLE3=Drums
EXTD=
EXTT0=
EXTT1=
EXTT2=
EXTT3=
PLAYORDER=
